<?xml version="1.0" encoding="utf-8"?>
<!-- Generator: Adobe Illustrator 17.1.0, SVG Export Plug-In . SVG Version: 6.00 Build 0)  -->
<!DOCTYPE svg PUBLIC "-//W3C//DTD SVG 1.1//EN" "http://www.w3.org/Graphics/SVG/1.1/DTD/svg11.dtd">
<svg version="1.1" xmlns="http://www.w3.org/2000/svg" xmlns:xlink="http://www.w3.org/1999/xlink" x="0px" y="0px"
	 viewBox="0 -177 1590.7 1221.2" enable-background="new 0 -177 1590.7 1221.2" xml:space="preserve">
<g id="Слой_2">
	<rect x="16.6" y="-177" fill="#44A5FF" width="1515.6" height="1224.3"/>
</g>
<g id="Capa_1">
	<g>
		<g>
			<path fill="#FFFFFF" d="M388.5,175h800.2c20.6,0,37.5-16.9,37.5-37.5s-16.9-37.5-37.5-37.5H388.5c-20.6,0-37.5,16.9-37.5,37.5
				S367.9,175,388.5,175z"/>
			<path fill="#FFFFFF" d="M388.5,456.3h800.2c20.6,0,37.5-16.9,37.5-37.5c0-20.6-16.9-37.5-37.5-37.5H388.5
				c-20.6,0-37.5,16.9-37.5,37.5C351,439.4,367.9,456.3,388.5,456.3z"/>
			<path fill="#FFFFFF" d="M388.5,737.6h800.2c20.6,0,37.5-16.9,37.5-37.5c0-20.6-16.9-37.5-37.5-37.5H388.5
				c-20.6,0-37.5,16.9-37.5,37.5C351,720.8,367.9,737.6,388.5,737.6z"/>
		</g>
	</g>
</g>
</svg>
