<?xml version="1.0" encoding="utf-8"?>
<!-- Generator: Adobe Illustrator 17.1.0, SVG Export Plug-In . SVG Version: 6.00 Build 0)  -->
<!DOCTYPE svg PUBLIC "-//W3C//DTD SVG 1.1//EN" "http://www.w3.org/Graphics/SVG/1.1/DTD/svg11.dtd">
<svg version="1.1" id="Capa_1" xmlns="http://www.w3.org/2000/svg" xmlns:xlink="http://www.w3.org/1999/xlink" x="0px" y="0px"
	 viewBox="0 0 960 560" enable-background="new 0 0 960 560" xml:space="preserve">
<g>
	<g>
		<path fill="#FFFFFF" d="M759.7,441.8c1.2,9.1-1.6,17-8.3,23.7l-78.8,78.3c-3.6,4-8.2,7.3-13.9,10.1c-5.7,2.8-11.4,4.5-16.9,5.3
			c-0.4,0-1.6,0.1-3.6,0.3c-2,0.2-4.5,0.3-7.7,0.3c-7.5,0-19.7-1.3-36.5-3.9c-16.8-2.6-37.3-8.9-61.7-19
			c-24.3-10.1-51.9-25.2-82.7-45.4c-30.8-20.2-63.6-47.8-98.4-83c-27.7-27.3-50.6-53.4-68.8-78.3c-18.2-24.9-32.8-47.9-43.9-69.1
			c-11.1-21.1-19.4-40.3-24.9-57.5c-5.5-17.2-9.3-32-11.3-44.5c-2-12.4-2.8-22.2-2.4-29.3c0.4-7.1,0.6-11.1,0.6-11.9
			c0.8-5.5,2.6-11.2,5.3-16.9s6.1-10.4,10.1-13.9L295,8.5c5.5-5.5,11.9-8.3,19-8.3c5.1,0,9.7,1.5,13.6,4.4c4,3,7.3,6.6,10.1,11
			l63.4,120.3c3.6,6.3,4.5,13.2,3,20.7c-1.6,7.5-4.9,13.8-10.1,19l-29,29c-0.8,0.8-1.5,2.1-2.1,3.9c-0.6,1.8-0.9,3.3-0.9,4.4
			c1.6,8.3,5.1,17.8,10.7,28.5c4.7,9.5,12.1,21,21.9,34.7c9.9,13.6,23.9,29.3,42.1,47.1c17.8,18.2,33.6,32.3,47.4,42.4
			c13.8,10.1,25.4,17.5,34.7,22.2c9.3,4.7,16.4,7.6,21.3,8.6l7.4,1.5c0.8,0,2.1-0.3,3.9-0.9c1.8-0.6,3.1-1.3,3.9-2.1l33.8-34.4
			c7.1-6.3,15.4-9.5,24.9-9.5c6.7,0,12.1,1.2,16,3.6h0.6l114.4,67.6C753.2,427.4,758.2,433.9,759.7,441.8z"/>
	</g>
</g>
</svg>
